COSMETIC_dedrift_NOT_METROLOGICALLY_VALID
# WARNING: cosmetic drift-bounding for visualisation only.
# These joint angles are NOT accurate. Do not analyse, report, or publish.
version=1
nRows=26
nColumns=40
inDegrees=yes
endheader
time	pelvis_tilt	pelvis_list	pelvis_rotation	pelvis_tx	pelvis_ty	pelvis_tz	hip_flexion_r	hip_adduction_r	hip_rotation_r	knee_angle_r	knee_angle_r_beta	ankle_angle_r	subtalar_angle_r	mtp_angle_r	hip_flexion_l	hip_adduction_l	hip_rotation_l	knee_angle_l	knee_angle_l_beta	ankle_angle_l	subtalar_angle_l	mtp_angle_l	lumbar_extension	lumbar_bending	lumbar_rotation	arm_flex_r	arm_add_r	arm_rot_r	elbow_flex_r	pro_sup_r	wrist_flex_r	wrist_dev_r	arm_flex_l	arm_add_l	arm_rot_l	elbow_flex_l	pro_sup_l	wrist_flex_l	wrist_dev_l
0	0.300240	-0.041960	120.000000	0.000000	0.940000	0.000000	0.797130	0.130411	0.599775	-0.171135	-0.002987	-0.230363	0.000000	0.000000	0.628997	-0.312042	-0.659836	-0.367387	-0.006412	-0.729036	0.000000	0.000000	-0.049807	-0.115989	0.264727	-0.374832	-0.080347	-0.092249	0.895780	24.235465	0.000000	0.000000	-0.337776	-0.064763	0.003999	0.798571	24.235465	0.000000	0.000000
0.025	0.342549	-0.069340	120.000000	0.000000	0.940000	0.000000	0.768029	0.156073	0.577212	-0.199454	-0.003481	-0.153646	0.000000	0.000000	0.625175	-0.307678	-0.624367	-0.411196	-0.007177	-0.675579	0.000000	0.000000	0.122780	-0.111126	0.279355	-0.495894	-0.069771	-0.090129	0.911345	27.777480	0.000000	0.000000	-0.448822	-0.079614	-0.010210	0.811293	27.777480	0.000000	0.000000
0.05	0.359457	-0.071490	120.000000	0.000000	0.940000	0.000000	0.774720	0.156453	0.520252	-0.191979	-0.003351	-0.162320	0.000000	0.000000	0.630946	-0.304010	-0.607670	-0.404762	-0.007064	-0.677078	0.000000	0.000000	0.201507	-0.089499	0.248889	-0.549042	-0.072041	-0.054912	0.921777	30.626466	0.000000	0.000000	-0.493913	-0.064168	-0.049670	0.820107	30.626466	0.000000	0.000000
0.075	0.387351	-0.090993	120.000000	0.000000	0.940000	0.000000	0.798933	0.165538	0.493837	-0.185066	-0.003230	-0.177544	0.000000	0.000000	0.665132	-0.309906	-0.609498	-0.403672	-0.007045	-0.676976	0.000000	0.000000	0.210211	-0.077339	0.246615	-0.502417	-0.091235	-0.031199	0.916197	33.041429	0.000000	0.000000	-0.442198	-0.052111	-0.086727	0.816926	33.041429	0.000000	0.000000
0.1	0.382523	-0.086205	120.000000	0.000000	0.940000	0.000000	0.812072	0.166356	0.457888	-0.164673	-0.002874	-0.220674	0.000000	0.000000	0.674586	-0.305088	-0.602398	-0.384819	-0.006716	-0.704126	0.000000	0.000000	0.170370	-0.073496	0.244520	-0.441413	-0.101666	-0.007434	0.910776	34.920298	0.000000	0.000000	-0.374784	-0.042060	-0.130269	0.814768	34.920298	0.000000	0.000000
0.125	0.399451	-0.092106	120.000000	0.000000	0.940000	0.000000	0.804257	0.178824	0.438508	-0.163266	-0.002850	-0.201381	0.000000	0.000000	0.680725	-0.304414	-0.587919	-0.386119	-0.006739	-0.652953	0.000000	0.000000	0.241308	-0.072040	0.259904	-0.500661	-0.095226	0.008373	0.918863	36.618201	0.000000	0.000000	-0.431905	-0.023944	-0.165812	0.825501	36.618201	0.000000	0.000000
0.15	0.399853	-0.094477	120.000000	0.000000	0.940000	0.000000	0.806452	0.192214	0.419435	-0.168891	-0.002948	-0.196156	0.000000	0.000000	0.665045	-0.310590	-0.580561	-0.371536	-0.006485	-0.626201	0.000000	0.000000	0.290257	-0.069982	0.258039	-0.541026	-0.077449	0.017368	0.931267	37.935341	0.000000	0.000000	-0.473740	-0.014593	-0.187795	0.845498	37.935341	0.000000	0.000000
0.175	0.416080	-0.099905	120.000000	0.000000	0.940000	0.000000	0.793884	0.197383	0.394196	-0.186446	-0.003254	-0.199985	0.000000	0.000000	0.687673	-0.310620	-0.553642	-0.373925	-0.006526	-0.612446	0.000000	0.000000	0.321733	-0.075012	0.259258	-0.535026	-0.086609	0.025461	0.926230	39.022447	0.000000	0.000000	-0.477525	-0.040778	-0.211904	0.843416	39.022447	0.000000	0.000000
0.2	0.371028	-0.052860	120.000000	0.000000	0.940000	0.000000	0.755601	0.210268	0.366986	-0.151081	-0.002637	-0.243642	0.000000	0.000000	0.661153	-0.310465	-0.541960	-0.336231	-0.005868	-0.645566	0.000000	0.000000	0.269253	-0.093297	0.229555	-0.544862	-0.065215	0.026831	0.929415	39.923217	0.000000	0.000000	-0.489142	-0.039085	-0.241162	0.851330	39.923217	0.000000	0.000000
0.225	0.358368	-0.052911	120.000000	0.000000	0.940000	0.000000	0.750852	0.181853	0.340389	-0.145044	-0.002531	-0.252770	0.000000	0.000000	0.668978	-0.295189	-0.526077	-0.330192	-0.005763	-0.659257	0.000000	0.000000	0.148706	-0.123546	0.242082	-0.392369	-0.050581	0.038563	0.906408	40.676682	0.000000	0.000000	-0.338307	-0.062986	-0.263997	0.831558	40.676682	0.000000	0.000000
0.25	0.327710	-0.042671	120.000000	0.000000	0.940000	0.000000	0.701329	0.163278	0.366751	-0.159872	-0.002790	-0.239606	0.000000	0.000000	0.646961	-0.278595	-0.546492	-0.323524	-0.005647	-0.652564	0.000000	0.000000	0.115165	-0.159702	0.267883	-0.390589	-0.032707	0.053146	0.902451	41.322685	0.000000	0.000000	-0.337681	-0.064816	-0.266776	0.835643	41.322685	0.000000	0.000000
0.275	0.315342	-0.039334	120.000000	0.000000	0.940000	0.000000	0.685169	0.151777	0.367361	-0.167191	-0.002918	-0.235848	0.000000	0.000000	0.647920	-0.274861	-0.529872	-0.320180	-0.005588	-0.652577	0.000000	0.000000	0.090635	-0.167736	0.242019	-0.359684	-0.042827	0.087686	0.896814	41.876875	0.000000	0.000000	-0.317566	-0.041149	-0.295300	0.843709	41.876875	0.000000	0.000000
0.3	0.279617	-0.008552	120.000000	0.000000	0.940000	0.000000	0.648885	0.146345	0.393196	-0.146841	-0.002563	-0.233023	0.000000	0.000000	0.628794	-0.271118	-0.530499	-0.298503	-0.005210	-0.668052	0.000000	0.000000	0.018670	-0.178538	0.238674	-0.329134	-0.041350	0.099225	0.901062	42.364973	0.000000	0.000000	-0.281927	-0.010719	-0.306764	0.857845	42.364973	0.000000	0.000000
0.325	0.299374	-0.034620	120.000000	0.000000	0.940000	0.000000	0.613676	0.132920	0.411796	-0.188959	-0.003298	-0.142856	0.000000	0.000000	0.637310	-0.251601	-0.503081	-0.337845	-0.005897	-0.601834	0.000000	0.000000	0.141292	-0.175927	0.214348	-0.449241	-0.021533	0.118772	0.903716	42.768601	0.000000	0.000000	-0.409636	-0.029639	-0.349616	0.879613	42.768601	0.000000	0.000000
0.35	0.271915	-0.009329	120.000000	0.000000	0.940000	0.000000	0.608581	0.127592	0.441948	-0.188824	-0.003296	-0.151447	0.000000	0.000000	0.634431	-0.269373	-0.509940	-0.308440	-0.005383	-0.656684	0.000000	0.000000	-0.018758	-0.207868	0.177487	-0.296435	-0.003462	0.125852	0.887634	43.135388	0.000000	0.000000	-0.253853	-0.065760	-0.398408	0.871172	43.135388	0.000000	0.000000
0.375	0.228606	0.012132	120.000000	0.000000	0.940000	0.000000	0.577530	0.107105	0.469479	-0.174944	-0.003053	-0.101211	0.000000	0.000000	0.609043	-0.265280	-0.524190	-0.288286	-0.005032	-0.644136	0.000000	0.000000	-0.046005	-0.228451	0.180411	-0.281992	-0.001136	0.090075	0.879029	43.462511	0.000000	0.000000	-0.250559	-0.074724	-0.396299	0.883038	43.462511	0.000000	0.000000
0.4	0.230194	0.000216	120.000000	0.000000	0.940000	0.000000	0.570197	0.102120	0.516821	-0.194917	-0.003402	-0.073701	0.000000	0.000000	0.638235	-0.264316	-0.515524	-0.303044	-0.005289	-0.646837	0.000000	0.000000	0.009883	-0.232767	0.144528	-0.314900	0.010790	0.106167	0.865176	43.708953	0.000000	0.000000	-0.288952	-0.067917	-0.443187	0.893305	43.708953	0.000000	0.000000
0.425	0.203760	0.009555	120.000000	0.000000	0.940000	0.000000	0.527857	0.083465	0.551678	-0.203987	-0.003560	-0.033152	0.000000	0.000000	0.628569	-0.247434	-0.544329	-0.287273	-0.005014	-0.648894	0.000000	0.000000	-0.069206	-0.240457	0.101177	-0.256695	0.025352	0.147185	0.863635	44.004522	0.000000	0.000000	-0.219817	-0.055573	-0.477561	0.907279	44.004522	0.000000	0.000000
0.45	0.211012	0.003058	120.000000	0.000000	0.940000	0.000000	0.555468	0.044241	0.561080	-0.208311	-0.003636	-0.059751	0.000000	0.000000	0.667195	-0.257931	-0.520716	-0.276252	-0.004822	-0.714451	0.000000	0.000000	-0.061497	-0.234900	0.111875	-0.228110	0.011249	0.149709	0.851773	44.174455	0.000000	0.000000	-0.201318	-0.075221	-0.461294	0.893263	44.174455	0.000000	0.000000
0.475	0.236193	-0.020692	120.000000	0.000000	0.940000	0.000000	0.580311	0.049309	0.586410	-0.221756	-0.003870	-0.017498	0.000000	0.000000	0.689075	-0.253361	-0.516930	-0.288516	-0.005036	-0.696219	0.000000	0.000000	-0.009472	-0.246868	0.106602	-0.254451	0.021042	0.136492	0.862997	44.345776	0.000000	0.000000	-0.229757	-0.084820	-0.434239	0.902934	44.345776	0.000000	0.000000
0.5	0.247869	-0.031627	120.000000	0.000000	0.940000	0.000000	0.575070	0.041494	0.607910	-0.235057	-0.004103	0.017565	0.000000	0.000000	0.709931	-0.275574	-0.536847	-0.306963	-0.005358	-0.687468	0.000000	0.000000	0.015382	-0.257200	0.119631	-0.253569	0.025162	0.137287	0.862840	44.502701	0.000000	0.000000	-0.240895	-0.116634	-0.423571	0.900934	44.502701	0.000000	0.000000
0.525	0.242231	-0.015854	120.000000	0.000000	0.940000	0.000000	0.592697	0.056351	0.636386	-0.235223	-0.004105	0.011124	0.000000	0.000000	0.706422	-0.274922	-0.540919	-0.310889	-0.005426	-0.694057	0.000000	0.000000	0.010046	-0.289067	0.148824	-0.253603	0.050196	0.120809	0.868375	44.618864	0.000000	0.000000	-0.235383	-0.151221	-0.380268	0.896723	44.618864	0.000000	0.000000
0.55	0.224410	-0.003465	120.000000	0.000000	0.940000	0.000000	0.572236	0.054290	0.664069	-0.255468	-0.004459	0.035130	0.000000	0.000000	0.688543	-0.267242	-0.545519	-0.331747	-0.005790	-0.667991	0.000000	0.000000	0.023947	-0.302247	0.173048	-0.287243	0.059015	0.121699	0.878318	44.700010	0.000000	0.000000	-0.265704	-0.154630	-0.348015	0.886082	44.700010	0.000000	0.000000
0.575	0.181017	0.037437	120.000000	0.000000	0.940000	0.000000	0.547668	0.044902	0.680920	-0.246688	-0.004306	0.012084	0.000000	0.000000	0.654869	-0.277622	-0.571087	-0.328063	-0.005726	-0.696064	0.000000	0.000000	-0.102811	-0.297984	0.154096	-0.212042	0.055471	0.145355	0.879303	44.762782	0.000000	0.000000	-0.187822	-0.156010	-0.330621	0.869606	44.762782	0.000000	0.000000
0.6	0.196248	0.013777	120.000000	0.000000	0.940000	0.000000	0.563491	0.039550	0.700719	-0.286328	-0.004997	0.041822	0.000000	0.000000	0.679252	-0.277716	-0.567671	-0.361987	-0.006318	-0.675370	0.000000	0.000000	-0.025562	-0.287868	0.158063	-0.273472	0.056352	0.162266	0.893227	44.826097	0.000000	0.000000	-0.248731	-0.159035	-0.308924	0.872257	44.826097	0.000000	0.000000
0.625	0.199736	-0.002221	120.000000	0.000000	0.940000	0.000000	0.583550	0.032027	0.718315	-0.312924	-0.005462	0.059155	0.000000	0.000000	0.685181	-0.284358	-0.577842	-0.387071	-0.006756	-0.683010	0.000000	0.000000	0.003400	-0.302589	0.173585	-0.282434	0.069394	0.142759	0.898506	44.880128	0.000000	0.000000	-0.261960	-0.161074	-0.274937	0.867188	44.880128	0.000000	0.000000
